<svg width="70" height="35" viewBox="0 0 70 35" fill="none" xmlns="http://www.w3.org/2000/svg">
<g id="EBWO-Logo 1" clip-path="url(#clip0_839_3714)">
<path id="Vector" d="M0 21.1989H3.24592L4.48612 29.6279L4.55198 30.4153H4.59039L8.82957 21.1989H11.3127L12.284 29.5373L12.3746 30.4153H12.413L12.8657 29.4989L16.7564 21.1989H20.2603L13.4995 34.4871H10.5225L9.21645 25.8771H9.18901L5.02665 34.4871H2.12096L0 21.1989ZM20.1917 28.5934C20.1917 25.1664 22.8669 20.7461 28.0774 20.7461C31.9955 20.7461 34.4375 23.5256 34.4375 27.002C34.4375 31.0217 31.2053 34.8356 26.5134 34.8356C22.6227 34.8383 20.1917 32.0726 20.1917 28.5934ZM31.2959 27.2627C31.2959 25.3118 30.1462 23.6436 27.8304 23.6436C25.2979 23.6436 23.3196 25.7262 23.3196 28.3108C23.3196 30.2891 24.4693 31.9299 26.8097 31.9299C29.3176 31.9299 31.2959 29.7568 31.2959 27.2627ZM30.9858 4.69213C29.5481 4.69213 28.3133 5.03785 27.2652 5.59485L28.2612 0.162109L25.0674 0.167597L21.8654 18.3728H24.9165L25.125 17.2615C26.1979 18.2081 27.6576 18.7788 29.4218 18.7788C34.1138 18.7788 37.346 14.9649 37.346 10.9453C37.3487 7.47161 34.904 4.69213 30.9858 4.69213ZM29.7209 15.8731C27.3804 15.8731 26.2308 14.2296 26.2308 12.2541C26.2308 9.6694 28.2091 7.58685 30.7416 7.58685C33.0546 7.58685 34.207 9.25508 34.207 11.2059C34.2043 13.7028 32.2288 15.8731 29.7209 15.8731ZM20.8968 12.5586C21.0066 12.0373 21.0697 11.5078 21.0697 10.9727C21.0697 7.49356 18.6277 4.71683 14.7095 4.71683C9.49906 4.71683 6.82385 9.1371 6.82385 12.5641C6.82385 16.0405 9.25486 18.809 13.1456 18.809C16.5232 18.809 19.1353 16.8307 20.3398 14.2241H16.8525C16.0348 15.2338 14.8248 15.9006 13.4447 15.9006C11.2167 15.9006 10.0807 14.408 9.97648 12.5586H17.7387V12.5614H20.8968V12.5586ZM10.2975 10.4651C10.9697 8.78589 12.5584 7.61154 14.4626 7.61154C16.4656 7.61154 17.5933 8.86272 17.8622 10.4651H10.2975ZM42.0022 8.02586C42.0022 6.56341 43.1985 4.98847 44.9243 4.98847C45.9643 4.98847 46.631 5.54271 46.856 6.32196L46.9356 5.79789L47.3993 3.16383H48.1813L46.9246 10.2703H46.1728L46.3786 9.11515C45.9149 9.93281 45.0615 10.413 44.1671 10.413C42.8391 10.4075 42.0022 9.33191 42.0022 8.02586ZM46.609 7.6966C46.76 6.80212 46.277 5.71283 44.9545 5.71283C43.7939 5.71283 42.7787 6.72804 42.7787 7.95452C42.7787 8.88193 43.3741 9.68586 44.4442 9.68586C45.4127 9.68586 46.4142 8.82156 46.609 7.6966ZM49.3803 7.91885V7.96824C49.3803 8.94778 49.951 9.68312 51.0705 9.68312C51.7153 9.68312 52.3518 9.33466 52.6262 8.73925H53.4494C53.0707 9.73251 52.0473 10.4047 51.0019 10.4047C49.5285 10.4047 48.6093 9.31819 48.6093 7.99293C48.6093 6.58536 49.7205 4.98847 51.5918 4.98847C53.0817 4.98847 53.8033 6.07776 53.8033 7.16979C53.8033 7.37283 53.7786 7.66368 53.7183 7.91611H49.3803V7.91885ZM49.4708 7.29875H53.035C53.1009 6.87072 52.8238 5.71283 51.5259 5.71283C50.5354 5.71283 49.7342 6.3686 49.4708 7.29875ZM55.4029 5.1284H56.1548L55.9627 6.20946C56.3825 5.48784 57.2193 4.98847 58.0617 4.98847C59.2882 4.98847 60.0592 5.79515 59.7272 7.71307L59.2772 10.2675H58.4952L58.9342 7.72404C59.2004 6.19848 58.5858 5.71009 57.7928 5.71009C56.9312 5.71009 55.9545 6.42073 55.7596 7.54295L55.274 10.2675H54.492L55.4029 5.1284ZM63.8264 7.21644L65.2395 10.2648H64.3917L63.1762 7.69112L61.9606 8.81608L61.7027 10.2648H60.9207L62.1719 3.15835H62.9594L62.1225 7.88867L64.8526 5.1284H65.8761L63.8264 7.21644ZM66.894 8.37981L67.3495 5.81161H66.1834L66.3041 5.13114H67.4702L67.7418 3.59736L68.5293 3.59187L68.2577 5.13114H70L69.8738 5.81161H68.1315L67.6732 8.41548C67.4977 9.43618 67.9613 9.60629 68.4305 9.60629H69.3333L69.218 10.2675H68.1726C67.3852 10.2675 66.6169 9.94927 66.894 8.37981ZM40.7346 15.146C40.7346 13.6836 41.9254 12.1086 43.6567 12.1086C44.6362 12.1086 45.3332 12.6135 45.6103 13.4668L45.8271 12.2458H46.5789L45.6652 17.385H44.9134L45.1192 16.2298C44.6445 17.0585 43.761 17.5277 42.9186 17.5277C41.5659 17.5222 40.7346 16.4466 40.7346 15.146ZM45.3359 14.8332C45.4978 13.925 45.0067 12.8303 43.6814 12.8303C42.5263 12.8303 41.5165 13.84 41.5165 15.072C41.5165 15.9994 42.101 16.7978 43.1765 16.7978C44.1808 16.7951 45.1439 15.939 45.3359 14.8332ZM48.28 12.2431H49.0318L48.8398 13.3242C49.2596 12.6025 50.0964 12.1032 50.9388 12.1032C52.1653 12.1032 52.9363 12.9098 52.6043 14.8278L52.1543 17.3822H51.3723L51.8113 14.8387C52.0775 13.3132 51.4628 12.8248 50.6699 12.8248C49.8083 12.8248 48.8315 13.5354 48.6367 14.6576L48.1511 17.3822H47.3691L48.28 12.2431ZM39.1706 24.1183C39.1706 22.6558 40.3669 21.0809 42.0927 21.0809C43.1326 21.0809 43.7994 21.6351 44.0244 22.4144L44.104 21.8903L44.5677 19.2563H45.3496L44.093 26.3627H43.3412L43.547 25.2076C43.0833 26.0252 42.2299 26.5054 41.3354 26.5054C40.0074 26.4999 39.1706 25.4271 39.1706 24.1183ZM43.7774 23.7918C43.9283 22.8973 43.4454 21.808 42.1229 21.808C40.9623 21.808 39.9471 22.8232 39.9471 24.0497C39.9471 24.9771 40.5425 25.781 41.6126 25.781C42.5811 25.7783 43.5826 24.9167 43.7774 23.7918ZM46.7106 21.2208H47.498L46.5844 26.36H45.8024L46.7106 21.2208ZM46.8423 19.6706C46.8889 19.4017 47.1413 19.1822 47.4569 19.1822C47.7807 19.1822 47.9563 19.4044 47.9124 19.6706C47.863 19.9422 47.605 20.159 47.2813 20.159C46.9685 20.1617 46.7929 19.9395 46.8423 19.6706ZM48.2553 24.1046C48.2553 22.686 49.3803 21.0809 51.2735 21.0809C52.596 21.0809 53.367 21.8574 53.4987 22.8671H52.7305C52.5631 22.1812 51.9924 21.808 51.2022 21.808C49.9702 21.808 49.0373 22.8122 49.0373 24.0332C49.0373 24.9771 49.6135 25.7783 50.7522 25.7783C51.3723 25.7783 52.0445 25.4189 52.3875 24.6835H53.1887C52.7854 25.8496 51.6906 26.4999 50.6562 26.4999C49.1882 26.4999 48.2553 25.4216 48.2553 24.1046ZM55.3371 19.2535H56.1246L55.691 21.7175L55.5703 22.2827C56.0093 21.5665 56.8133 21.0809 57.6556 21.0809C58.8876 21.0809 59.6531 21.8876 59.3211 23.8055L58.8711 26.36H58.0836L58.5281 23.8165C58.7915 22.2909 58.1797 21.8025 57.3812 21.8025C56.5279 21.8025 55.5484 22.5132 55.3536 23.6354L54.8679 26.36H54.0859L55.3371 19.2535Z" fill="#F47921"/>
</g>
<defs>
<clipPath id="clip0_839_3714">
<rect width="70" height="35" fill="white"/>
</clipPath>
</defs>
</svg>
