<svg width="113" height="112" viewBox="0 0 113 112" fill="none" xmlns="http://www.w3.org/2000/svg">
<g id="Group 72">
<g id="Group 71">
<g id="Group 70">
<circle id="Ellipse 1560" cx="56.5" cy="56" r="56" fill="#F8F8F8"/>
<g id="Mask group">
<mask id="mask0_839_3721" style="mask-type:alpha" maskUnits="userSpaceOnUse" x="0" y="0" width="113" height="112">
<circle id="Ellipse 1561" cx="56.5" cy="56" r="56" fill="#F8F8F8"/>
</mask>
<g mask="url(#mask0_839_3721)">
<g id="Group 69">
<rect id="Rectangle 123" x="50.6011" y="24" width="8.37736" height="111" fill="#F0C5A6"/>
<path id="Rectangle 124" d="M40.2194 31.8546L86.2948 27.9277L98.73 41.0174L86.2948 54.107L40.2194 50.1801V31.8546Z" fill="#F47921"/>
<path id="Rectangle 125" d="M72.2889 58.0333L25.1662 54.1064L12.7311 67.1961L25.1662 80.2857L72.2889 76.3588V58.0333Z" fill="#BA5914"/>
</g>
</g>
</g>
</g>
<path id="Subtract" fill-rule="evenodd" clip-rule="evenodd" d="M96.5 94C105.337 94 112.5 86.8366 112.5 78C112.5 69.1634 105.337 62 96.5 62C87.6634 62 80.5 69.1634 80.5 78C80.5 86.8366 87.6634 94 96.5 94ZM96.913 71.6388C96.1681 71.511 95.4021 71.651 94.7506 72.0339C94.0991 72.4168 93.6041 73.0179 93.3533 73.7308C93.0601 74.5644 92.1466 75.0024 91.313 74.7092C90.4795 74.416 90.0414 73.5025 90.3347 72.6689C90.8362 71.2431 91.8262 70.0409 93.1292 69.2751C94.4323 68.5093 95.9643 68.2293 97.454 68.4848C98.9436 68.7404 100.295 69.5148 101.268 70.6711C102.241 71.8272 102.774 73.2902 102.772 74.8013C102.771 77.2499 100.956 78.8669 99.6595 79.7312C98.9625 80.1958 98.2769 80.5375 97.7718 80.762C97.517 80.8752 97.3024 80.9612 97.1478 81.0201C97.0704 81.0496 97.0076 81.0724 96.9619 81.0887L96.9063 81.1081L96.8886 81.1142L96.8824 81.1163L96.88 81.1171C96.8795 81.1173 96.878 81.1178 96.372 79.5999L96.878 81.1178C96.0396 81.3972 95.1335 80.9441 94.8541 80.1058C94.5748 79.2681 95.0271 78.3626 95.8644 78.0825L95.8899 78.0736C95.9145 78.0648 95.9548 78.0502 96.0086 78.0297C96.1165 77.9886 96.277 77.9245 96.4722 77.8378C96.8671 77.6622 97.3815 77.4039 97.8845 77.0686C98.9878 76.333 99.572 75.5505 99.572 74.7999L99.572 74.7975C99.5731 74.0418 99.3068 73.3101 98.8201 72.7319C98.3334 72.1538 97.6578 71.7665 96.913 71.6388ZM96.5 84.4004C95.6164 84.4004 94.9 85.1167 94.9 86.0004C94.9 86.884 95.6164 87.6004 96.5 87.6004H96.516C97.3997 87.6004 98.116 86.884 98.116 86.0004C98.116 85.1167 97.3997 84.4004 96.516 84.4004H96.5Z" fill="#F47921"/>
</g>
</g>
</svg>
